<svg width="36" height="38" viewBox="0 0 36 38" fill="none" xmlns="http://www.w3.org/2000/svg">
<path fill-rule="evenodd" clip-rule="evenodd" d="M35.9835 8.95863C35.9835 8.81427 35.9505 8.6699 35.8845 8.53356C35.7524 8.26087 35.4966 8.0764 35.216 8.02026L18.4044 0.0962431C18.132 -0.032081 17.8102 -0.032081 17.5378 0.0962431L0.56121 8.09244C0.231087 8.24483 0.0165062 8.56564 0 8.92655V8.93457V8.96665V29.0333C0 29.4023 0.21458 29.7391 0.56121 29.8995L17.5378 37.8957C17.5399 37.8957 17.5414 37.8957 17.5427 37.8959C17.5436 37.8959 17.5444 37.8961 17.5452 37.8964C17.5464 37.8968 17.5475 37.8975 17.5489 37.8986C17.5503 37.8998 17.552 37.9015 17.5543 37.9038C17.5791 37.9118 17.6039 37.9198 17.6286 37.9358C17.632 37.9358 17.6354 37.9372 17.6395 37.9388C17.6451 37.9411 17.652 37.9439 17.6616 37.9439L17.7359 37.9679C17.74 37.9679 17.7442 37.9699 17.7483 37.9719C17.7524 37.9739 17.7565 37.9759 17.7607 37.9759C17.773 37.9799 17.7875 37.982 17.8019 37.984L17.802 37.984C17.8164 37.986 17.8308 37.988 17.8432 37.992H17.868C17.8845 37.992 17.903 37.994 17.9216 37.996C17.9402 37.998 17.9587 38 17.9752 38C18.0083 38 18.0495 38 18.0825 37.992H18.1073C18.132 37.992 18.1651 37.984 18.1898 37.9759C18.1939 37.9759 18.1981 37.9739 18.2022 37.9719C18.2063 37.9699 18.2105 37.9679 18.2146 37.9679L18.2889 37.9439C18.2923 37.9439 18.2957 37.9425 18.2997 37.9409L18.2997 37.9409C18.3054 37.9386 18.3122 37.9358 18.3219 37.9358C18.3466 37.9278 18.3714 37.9198 18.3961 37.9038C18.3997 37.9038 18.4017 37.9038 18.4035 37.9031C18.4059 37.9023 18.4079 37.9003 18.4127 37.8957L35.4388 29.8755C35.7772 29.7151 36 29.3782 36 29.0093V8.98269C35.9835 8.97467 35.9835 8.96665 35.9835 8.95863ZM17.967 2.02913L32.6905 8.96665L27.2682 11.5251L12.5447 4.58759L17.967 2.02913ZM3.24347 8.96665L17.967 15.9042L24.9986 12.5918L10.2751 5.65428L3.24347 8.96665ZM1.98074 10.5146L16.9766 17.5804V35.4897L1.98074 28.4238V10.5146ZM18.9574 17.5804V35.4897L34.0028 28.3917V10.4825L27.978 13.3217V18.9439C27.978 19.4732 27.5323 19.9063 26.9876 19.9063C26.4429 19.9063 25.9972 19.4732 25.9972 18.9439V14.26L18.9574 17.5804Z" fill="black"/>
</svg>
