<?xml version="1.0" encoding="utf-8"?>
<!-- Generator: Adobe Illustrator 19.0.0, SVG Export Plug-In . SVG Version: 6.00 Build 0)  -->
<svg version="1.1" id="Layer_1" xmlns="http://www.w3.org/2000/svg" xmlns:xlink="http://www.w3.org/1999/xlink" x="0px" y="0px"
	 viewBox="0 0 500 500" style="enable-background:new 0 0 500 500;" xml:space="preserve">
<path d="M334.4,221.7c5.2,0,9.8-2.9,12.2-7.2l24.9-45.2c2.6-4.6-0.8-10.3-6.1-10.3H262.3l-6.6-13.9H233v13.9h13.9l25.1,52.9l-9.4,17
	c-5.1,9.3,1.6,20.7,12.2,20.7h83.6v-13.9h-83.6l7.7-13.9H334.4z M269,172.9h84.7l-19.2,34.8h-48.9L269,172.9z M274.8,256.5
	c-7.7,0-13.9,6.3-13.9,13.9s6.2,13.9,13.9,13.9s13.9-6.3,13.9-13.9S282.5,256.5,274.8,256.5z M344.5,256.5
	c-7.7,0-13.9,6.3-13.9,13.9s6.2,13.9,13.9,13.9s13.9-6.3,13.9-13.9S352.2,256.5,344.5,256.5z"/>
</svg>
