<svg width="18" height="18" viewBox="0 0 18 18" fill="none" xmlns="http://www.w3.org/2000/svg">
<path fill-rule="evenodd" clip-rule="evenodd" d="M14.6694 8.97414C14.3595 9.53017 13.7655 9.90517 13.094 9.90517V9.9181H6.39204L5.39772 11.7155H16.1932V13.5129H5.39772C4.02892 13.5129 3.16374 12.0388 3.82231 10.8362L5.03615 8.63793L1.79494 1.79741H0V0H2.9313L3.78357 1.79741H17.0971C17.7815 1.79741 18.2205 2.53448 17.8848 3.12931L14.6694 8.97414ZM15.5862 3.59483H4.64875L6.79235 8.09483H13.1069L15.5862 3.59483ZM5.39772 14.4052C4.4034 14.4052 3.60278 15.2198 3.60278 16.2026C3.60278 17.1853 4.4034 18 5.39772 18C6.39204 18 7.19266 17.1853 7.19266 16.2026C7.19266 15.2198 6.39204 14.4052 5.39772 14.4052ZM12.6033 16.2026C12.6033 15.2198 13.4039 14.4052 14.3982 14.4052C15.3925 14.4052 16.1932 15.2198 16.1932 16.2026C16.1932 17.1853 15.3925 18 14.3982 18C13.4039 18 12.6033 17.1853 12.6033 16.2026Z" fill="#111111"/>
</svg>
