<svg width="16" height="12" viewBox="0 0 16 12" fill="none" xmlns="http://www.w3.org/2000/svg">
<path fill-rule="evenodd" clip-rule="evenodd" d="M8 1.5C5.59273 1.5 3.63636 3.5175 3.63636 6H5.81818L2.90909 9L0 6H2.18182C2.18182 2.685 4.78545 0 8 0C9.14182 0 10.2036 0.345 11.0982 0.93L10.0364 2.025C9.43273 1.6875 8.73455 1.5 8 1.5ZM10.1818 6L13.0909 3L16 6H13.8182C13.8182 9.315 11.2145 12 8 12C6.85818 12 5.79636 11.655 4.90182 11.07L5.96364 9.975C6.56727 10.3125 7.26545 10.5 8 10.5C10.4073 10.5 12.3636 8.4825 12.3636 6H10.1818Z" fill="black"/>
</svg>
