<svg width="57" height="38" viewBox="0 0 57 38" fill="none" xmlns="http://www.w3.org/2000/svg">
<path fill-rule="evenodd" clip-rule="evenodd" d="M5.93747 0H51.0626C54.3354 0 57.0001 2.66474 57 5.93756V32.0625C57 35.3353 54.3352 38 51.0625 38H5.93747C2.66475 38 0 35.3353 0 32.0625V5.93756C0 2.66474 2.66475 0 5.93747 0ZM51.0626 35.6249C53.0268 35.6249 54.6251 34.0266 54.6251 32.0624H54.625V5.93756C54.625 3.9734 53.0267 2.37507 51.0625 2.37507H5.93747C3.97331 2.37507 2.37497 3.9734 2.37497 5.93756V32.0624C2.37497 34.0266 3.97331 35.6249 5.93747 35.6249H51.0626Z" fill="black"/>
<path fill-rule="evenodd" clip-rule="evenodd" d="M1.18753 7H55.8124C56.4679 7 56.9999 7.56003 57 8.25003V15.75C57 16.44 56.468 17 55.8125 17H1.18753C0.532036 17 0 16.44 0 15.75V8.25003C0 7.56003 0.532036 7 1.18753 7ZM2.37496 14.4999H54.6248V9.49994H2.37496V14.4999Z" fill="black"/>
<path d="M22.7857 25H8.21432C7.54404 25 7 25.448 7 26C7 26.5521 7.54404 27 8.21432 27H22.7857C23.456 27 24 26.552 24 26C24 25.4479 23.456 25 22.7857 25Z" fill="black"/>
<path d="M22.7857 28H8.21432C7.54404 28 7 28.448 7 29C7 29.552 7.54404 30 8.21432 30H22.7857C23.456 30 24 29.552 24 29C23.9999 28.448 23.456 28 22.7857 28Z" fill="black"/>
<path fill-rule="evenodd" clip-rule="evenodd" d="M43.375 21H45.625C47.4858 21 49 22.6826 49 24.75V27.25C49 29.3175 47.4858 31 45.625 31H43.375C41.5142 31 40 29.3175 40 27.25V24.75C40 22.6825 41.5142 21 43.375 21ZM45.625 28.5001C46.246 28.5001 46.75 27.9401 46.75 27.2501V24.7501C46.75 24.0601 46.246 23.5001 45.625 23.5001H43.375C42.754 23.5001 42.25 24.0601 42.25 24.7501V27.2501C42.25 27.9401 42.754 28.5001 43.375 28.5001H45.625Z" fill="black"/>
</svg>
