<?xml version="1.0" encoding="utf-8"?>
<!-- Generator: Adobe Illustrator 19.0.0, SVG Export Plug-In . SVG Version: 6.00 Build 0)  -->
<svg version="1.1" id="Layer_1" xmlns="http://www.w3.org/2000/svg" xmlns:xlink="http://www.w3.org/1999/xlink" x="0px" y="0px"
	 viewBox="-237 239 24 24" style="enable-background:new -237 239 24 24;" xml:space="preserve">
<path d="M-225,245c3.8,0,7.2,2.1,8.8,5.5c-1.7,3.4-5,5.5-8.8,5.5s-7.2-2.1-8.8-5.5C-232.2,247.1-228.8,245-225,245 M-225,243
	c-5,0-9.3,3.1-11,7.5c1.7,4.4,6,7.5,11,7.5s9.3-3.1,11-7.5C-215.7,246.1-220,243-225,243z M-225,248c1.4,0,2.5,1.1,2.5,2.5
	s-1.1,2.5-2.5,2.5s-2.5-1.1-2.5-2.5S-226.4,248-225,248"/>
</svg>
