<svg width="52" height="38" viewBox="0 0 52 38" fill="none" xmlns="http://www.w3.org/2000/svg">
<path fill-rule="evenodd" clip-rule="evenodd" d="M22.2993 9.70009C34.8048 10.1637 41.8977 15.5687 45.6621 20.1097C50.341 25.7571 52.0105 32.3843 51.9999 36.7146C51.9999 37.2941 51.6064 37.8103 51.0322 37.9579C50.9259 37.9895 50.8089 38 50.7026 38C50.2347 38 49.7987 37.7577 49.5647 37.3468C42.9398 25.7676 30.4556 25.1671 22.2887 25.1354V33.5116C22.2887 34.0174 22.0016 34.4704 21.5443 34.6811C21.0871 34.9024 20.5554 34.8286 20.1619 34.5126L0.467893 18.3607C0.170143 18.1184 0 17.7602 0 17.3704C0 16.9911 0.180777 16.6223 0.478527 16.38L20.1726 0.291374C20.5554 -0.0247086 21.0977 -0.0879251 21.555 0.122796C22.0122 0.333518 22.2993 0.797105 22.2993 1.2923V9.70009ZM20.0662 22.9334C20.3108 22.6911 20.6405 22.5541 20.9914 22.5541C28.5734 22.5541 40.6429 22.5646 48.7034 31.6784C46.6723 23.7341 39.6964 12.4289 20.9807 12.2498C20.2683 12.2393 19.694 11.6598 19.694 10.9539V4.03168L3.36032 17.3809L19.6834 30.7722V23.85C19.6834 23.5024 19.8216 23.1757 20.0662 22.9334Z" fill="black"/>
</svg>
