<svg width="19" height="18" viewBox="0 0 19 18" fill="none" xmlns="http://www.w3.org/2000/svg">
<path fill-rule="evenodd" clip-rule="evenodd" d="M14.5441 12.2025C14.4419 12.3611 14.4602 12.5909 14.5933 12.724L18.1386 16.2675C18.2699 16.4006 18.2699 16.6158 18.1368 16.749L16.9842 17.9016C16.8529 18.0329 16.6377 18.0329 16.5046 17.9016L16.169 17.5678C16.0377 17.4347 15.9009 17.307 15.8681 17.2797C15.848 17.2651 15.828 17.2468 15.8097 17.2286L12.983 14.4019C12.8498 14.2706 12.6219 14.256 12.4705 14.3654C11.1793 15.2809 9.6073 15.8262 7.90942 15.8262C3.54711 15.8262 0 12.2791 0 7.91858C0 3.55627 3.54711 0.00915527 7.90942 0.00915527C12.2681 0.00915527 15.817 3.55627 15.817 7.91858C15.817 9.49791 15.3465 10.9678 14.5441 12.2025ZM11.814 12.5271C12.1386 12.2517 12.4322 11.9417 12.693 11.6025C13.4809 10.5812 13.9568 9.3046 13.9568 7.91858C13.9568 4.58302 11.2432 1.86934 7.90942 1.86934C4.57386 1.86934 1.86018 4.58484 1.86018 7.91858C1.86018 11.2523 4.57386 13.966 7.90942 13.966C9.39757 13.966 10.7599 13.4225 11.814 12.5271Z" fill="#111111"/>
</svg>
