<?xml version="1.0" encoding="utf-8"?>
<!-- Generator: Adobe Illustrator 19.0.0, SVG Export Plug-In . SVG Version: 6.00 Build 0)  -->
<svg version="1.1" id="Layer_1" xmlns="http://www.w3.org/2000/svg" xmlns:xlink="http://www.w3.org/1999/xlink" x="0px" y="0px"
	 viewBox="0 0 500 500" style="enable-background:new 0 0 500 500;" xml:space="preserve">
<g id="XMLID_2_">
	<path id="XMLID_3_" d="M168.3,127.6c2.9,0,5.6,0.7,8,2.2s4.4,3.4,5.9,5.9s2.2,5.2,2.2,8v3.1c0,1.6-0.6,3-1.7,4.1s-2.5,1.7-4.1,1.7
		h-42.2c-1.6,0-3-0.6-4.1-1.7s-1.7-2.5-1.7-4.1v-3.1c0-2.9,0.7-5.6,2.2-8s3.4-4.4,5.9-5.9s5.2-2.2,8-2.2c1,0,2.4,0.3,4.1,0.8
		c1.1,0.3,2,0.6,2.8,0.7c1.2,0.2,2.5,0.4,4,0.4s2.8-0.1,4-0.4c0.7-0.2,1.6-0.4,2.8-0.7C165.9,127.8,167.3,127.6,168.3,127.6z
		 M178.6,146.7v-3.1c0-2.8-1-5.2-3.1-7.3c-2-2-4.5-3.1-7.3-3.1c-0.5,0-1.3,0.2-2.4,0.5c-2.9,1-5.7,1.4-8.3,1.4s-5.5-0.5-8.5-1.4
		c-1.2-0.3-2-0.5-2.4-0.5c-2.8,0-5.2,1-7.3,3.1c-2,2-3.1,4.5-3.1,7.3v3.1H178.6z M157.5,125.6c-3.1,0-6-0.8-8.6-2.3
		c-2.6-1.6-4.7-3.7-6.3-6.3c-1.6-2.6-2.3-5.5-2.3-8.6s0.8-6,2.3-8.6c1.6-2.6,3.7-4.7,6.3-6.3c2.6-1.6,5.5-2.3,8.6-2.3s6,0.8,8.6,2.3
		c2.6,1.6,4.7,3.7,6.3,6.3c1.6,2.6,2.3,5.5,2.3,8.6s-0.8,6-2.3,8.6c-1.6,2.6-3.7,4.7-6.3,6.3C163.5,124.9,160.6,125.6,157.5,125.6z
		 M157.5,96.9c-3.2,0-5.9,1.1-8.2,3.4s-3.4,5-3.4,8.2s1.1,5.9,3.4,8.2s5,3.4,8.2,3.4s5.9-1.1,8.2-3.4s3.4-5,3.4-8.2
		s-1.1-5.9-3.4-8.2S160.7,96.9,157.5,96.9z"/>
</g>
</svg>
