<svg width="13" height="12" viewBox="0 0 13 12" fill="none" xmlns="http://www.w3.org/2000/svg">
<path fill-rule="evenodd" clip-rule="evenodd" d="M6.5 1.36694C7.21019 0.532258 8.29352 0 9.425 0C11.4352 0 13 1.58468 13 3.60484C13 6.05521 10.8163 8.05235 7.5094 11.0766L7.43889 11.1411L6.5 12L5.56111 11.1411L5.53891 11.1208C2.20502 8.0717 0 6.05502 0 3.59274C0 1.58468 1.56481 0 3.575 0C4.70648 0 5.78981 0.532258 6.5 1.36694ZM6.5 10.2339L6.56019 10.1734C9.66574 7.35484 11.7 5.49194 11.712 3.60484C11.712 2.29839 10.737 1.31855 9.43704 1.31855C8.42593 1.31855 7.45093 1.97177 7.11389 2.86694H5.89815C5.54907 1.97177 4.57407 1.31855 3.575 1.31855C2.275 1.31855 1.3 2.29839 1.3 3.60484C1.3 5.49043 3.34303 7.35187 6.43242 10.1666L6.43981 10.1734L6.5 10.2339Z" fill="black"/>
</svg>
