<?xml version="1.0" encoding="utf-8"?>
<!-- Generator: Adobe Illustrator 19.0.0, SVG Export Plug-In . SVG Version: 6.00 Build 0)  -->
<svg version="1.1" id="Layer_1" xmlns="http://www.w3.org/2000/svg" xmlns:xlink="http://www.w3.org/1999/xlink" x="0px" y="0px"
	 viewBox="0 0 100 100" style="enable-background:new 0 0 500 500;" xml:space="preserve">
<path d="M314.4,142c-9.4,0-18.4,4.4-24.3,11.3c-5.9-6.9-14.9-11.3-24.3-11.3c-16.7,0-29.7,13.1-29.7,29.7
	c0,20.4,18.4,37.1,46.2,62.4l7.8,7.1l7.8-7.1c27.8-25.3,46.2-41.9,46.2-62.3C344.1,155.1,331.1,142,314.4,142z M290.6,226.1
	l-0.5,0.5l-0.5-0.5c-25.7-23.3-42.7-38.7-42.7-54.3c0-10.8,8.1-18.9,18.9-18.9c8.3,0,16.4,5.4,19.3,12.8h10.1
	c2.8-7.4,10.9-12.8,19.3-12.8c10.8,0,18.9,8.1,18.9,18.9C333.3,187.4,316.4,202.8,290.6,226.1z"/>
</svg>
