<svg width="19" height="18" viewBox="0 0 19 18" fill="none" xmlns="http://www.w3.org/2000/svg">
<path fill-rule="evenodd" clip-rule="evenodd" d="M9.43018 2.034C10.4586 0.792 12.0274 0 13.666 0C16.577 0 18.843 2.358 18.843 5.364C18.843 9.01015 15.6807 11.9819 10.8919 16.482L10.7898 16.578L9.43018 17.856L8.07055 16.578L8.03839 16.5478C3.21049 12.0107 0.017334 9.00987 0.017334 5.346C0.017334 2.358 2.28339 0 5.1944 0C6.83293 0 8.40174 0.792 9.43018 2.034ZM9.43018 15.228L9.51733 15.138C14.0146 10.944 16.9605 8.172 16.9779 5.364C16.9779 3.42 15.566 1.962 13.6834 1.962C12.2192 1.962 10.8072 2.934 10.3192 4.266H8.55862C8.05311 2.934 6.64119 1.962 5.1944 1.962C3.31183 1.962 1.8999 3.42 1.8999 5.364C1.8999 8.16976 4.85848 10.9396 9.33232 15.128L9.34302 15.138L9.43018 15.228Z" fill="#111111"/>
</svg>